<svg xmlns="http://www.w3.org/2000/svg" viewBox="0 0 978.9 291.78"><defs><style>.cls-1{fill:#bfbfbf;}.cls-2{fill:#c4c4c4;}.cls-3{fill:#06b6a6;}.cls-4{fill:#02b9d4;}.cls-5{fill:#00bef2;}.cls-6{fill:#8cc65a;}.cls-7{fill:#59be82;}.cls-8{fill:#0364b1;}.cls-9{fill:#027bc4;}.cls-10{fill:#019ade;}.cls-11{fill:#8ac759;}</style></defs><g id="Layer_2" data-name="Layer 2"><g id="Layer_1-2" data-name="Layer 1"><path d="M95.8,153.53h-71v66H0V68.6H24.76v64.73h71V68.6h24.76v151H95.8Z"/><path d="M236.56,88.58H177.91v44.31H230V153.1H177.91v46.26h58.65v20.21H153.15V68.38h83.41Z"/><path d="M358,188.72H294.78l-10.86,30.85H258.07L312.15,68.38h28.68l54.09,151.19H368.85Zm-31.5-90.36-24.76,70.16H351Z"/><path d="M443.14,68.6v131h51.05v20H418.38V68.6Z"/><path d="M507,68.6H612.36V88.8H572.17V219.57H547.41V88.8H507Z"/><path d="M733.14,153.53h-71v66H637.34V68.6h24.77v64.73h71V68.6H757.9v151H733.14Z"/><path class="cls-1" d="M899.74,94.05h-20.9c-.72,0-1.3-1-1.3-2.31s.58-2.3,1.3-2.3h20.9c.72,0,1.3,1,1.3,2.3S900.46,94.05,899.74,94.05Z"/><path class="cls-1" d="M915.82,72.36H864.6c-.81,0-1.46-1-1.46-2.3s.65-2.31,1.46-2.31h51.22c.81,0,1.46,1,1.46,2.31S916.63,72.36,915.82,72.36Z"/><path class="cls-1" d="M928.88,47.28H854.63c-.86,0-1.55-1-1.55-2.31s.69-2.3,1.55-2.3h74.25c.86,0,1.55,1,1.55,2.3S929.74,47.28,928.88,47.28Z"/><path class="cls-2" d="M924,242H843.32a2.15,2.15,0,0,1,0-4.23H924a2.15,2.15,0,0,1,0,4.23Z"/><path class="cls-2" d="M909,206.43H856.34c-.73,0-1.32-1-1.32-2.31s.59-2.3,1.32-2.3H909c.73,0,1.33,1,1.33,2.3S909.72,206.43,909,206.43Z"/><path class="cls-2" d="M890.82,178.08h-12.1c-.52,0-.94-1-.94-2.3s.42-2.31.94-2.31h12.1c.51,0,.93,1,.93,2.31S891.33,178.08,890.82,178.08Z"/><path class="cls-3" d="M818.1,26.68A21.84,21.84,0,1,1,796.26,4.84,21.84,21.84,0,0,1,818.1,26.68Z"/><path class="cls-4" d="M843,77.51a18.64,18.64,0,1,1-18.64-18.63A18.63,18.63,0,0,1,843,77.51Z"/><circle class="cls-5" cx="854.35" cy="112.98" r="16.83" transform="translate(-2.95 25.12) rotate(-1.68)"/><path class="cls-5" d="M901,137.67a15.25,15.25,0,1,1-15.25-15.25A15.25,15.25,0,0,1,901,137.67Z"/><path class="cls-5" d="M930.14,164.71a13.07,13.07,0,1,1-13.06-13.06A13.07,13.07,0,0,1,930.14,164.71Z"/><path class="cls-4" d="M951.69,191.57a11.78,11.78,0,1,1-11.78-11.77A11.77,11.77,0,0,1,951.69,191.57Z"/><path class="cls-6" d="M964.9,216.58a7.58,7.58,0,1,1-7.57-7.57A7.58,7.58,0,0,1,964.9,216.58Z"/><path class="cls-7" d="M971.9,247.58a9.58,9.58,0,1,1-9.57-9.57A9.57,9.57,0,0,1,971.9,247.58Z"/><path class="cls-3" d="M969.52,278.58a13.2,13.2,0,1,1-13.19-13.19A13.19,13.19,0,0,1,969.52,278.58Z"/><path class="cls-8" d="M829.82,252.65a22.77,22.77,0,1,1-22.77-22.77A22.76,22.76,0,0,1,829.82,252.65Z"/><path class="cls-9" d="M841.23,202.13a19.44,19.44,0,1,1-19.44-19.44A19.44,19.44,0,0,1,841.23,202.13Z"/><path class="cls-10" d="M868.89,163.34a17.55,17.55,0,1,1-17.55-17.55A17.55,17.55,0,0,1,868.89,163.34Z"/><circle class="cls-5" cx="918.45" cy="110.46" r="13.63" transform="translate(662.92 999.53) rotate(-80.82)"/><path class="cls-4" d="M953.9,84.19a11.55,11.55,0,1,1-11.55-11.55A11.55,11.55,0,0,1,953.9,84.19Z"/><path class="cls-3" d="M966.9,57.48A8.48,8.48,0,1,1,958.42,49,8.48,8.48,0,0,1,966.9,57.48Z"/><path class="cls-7" d="M976.9,30.48A7.48,7.48,0,1,1,969.42,23,7.48,7.48,0,0,1,976.9,30.48Z"/><path class="cls-11" d="M978.9,4.48A4.48,4.48,0,1,1,974.42,0,4.48,4.48,0,0,1,978.9,4.48Z"/></g></g></svg>